<svg xmlns="http://www.w3.org/2000/svg" width="18" height="18" viewBox="0 0 18 18">
    <g fill="#9E9E9E" fill-rule="evenodd">
        <path d="M14.87 17.1H3.055V3.055H14.87V17.1zM6.028 2.232h5.867V.826H6.028v1.407zm11.485 0H12.72V.413A.412.412 0 0 0 12.308 0H5.616a.412.412 0 0 0-.412.411v1.819H.412a.413.413 0 0 0 0 .824H2.23v14.457c0 .227.184.412.412.412h12.639a.413.413 0 0 0 .412-.412V3.055h1.819a.412.412 0 0 0 0-.825z"/>
        <path d="M5.616 14.58a.413.413 0 0 1-.412-.413v-8.55a.413.413 0 0 1 .824 0v8.55a.413.413 0 0 1-.412.412M8.962 14.58a.413.413 0 0 1-.412-.413v-8.55a.413.413 0 0 1 .824 0v8.55a.413.413 0 0 1-.412.412M12.308 14.207a.413.413 0 0 1-.412-.412v-8.55a.412.412 0 0 1 .824 0v8.55a.413.413 0 0 1-.412.412"/>
    </g>
</svg>
