<?xml version="1.0" encoding="UTF-8" standalone="no"?>
<svg width="65px" height="61px" viewBox="0 0 65 61" version="1.1" xmlns="http://www.w3.org/2000/svg" xmlns:xlink="http://www.w3.org/1999/xlink">
    <!-- Generator: sketchtool 41.2 (35397) - http://www.bohemiancoding.com/sketch -->
    <title>9C3DC736-27B0-40D3-B4A7-89DE9F18A2B9</title>
    <desc>Created with sketchtool.</desc>
    <defs></defs>
    <g id="card-redesign-v3" stroke="none" stroke-width="1" fill="none" fill-rule="evenodd">
        <g id="cart-redesign-13" transform="translate(-744.000000, -357.000000)">
            <g id="empty-cart-icon" transform="translate(744.000000, 357.000000)">
                <polygon id="Fill-1" fill="#C3DA5F" points="39.8099738 11.7539516 41.2535208 6.12923899 42.3233788 4.51730118 44.5724334 3.85942387 45.7567049 4.03980958 46.9912629 4.28570622 48.7125393 5.85427765 48.9916528 7.00164151 48.9916528 8.1896037 48.63042 10.7712877 47.7358729 14.7808331 46.7822738 15.8516138 43.2857435 16.122423 38.8476091 15.8516138 40.1933511 14.3914583"></polygon>
                <polygon id="Fill-2" fill="#FEFEFE" points="43.9196309 3.85956227 44.5724334 0.485749664 47.6758982 1.31755387 48.0463578 1.69216563 48.0463578 3.85956227 46.9755771 4.03994798"></polygon>
                <polygon id="Fill-3" fill="#29AFE5" points="17.8913103 15.6707667 16.5248077 4.5113037 17.4295044 2.53767176 22.2966892 1.93792387 26.0275825 1.74831126 26.9867178 2.96856756 28.406275 15.6707667 25.21008 15.8516138"></polygon>
                <path d="M14.7762658,12.5526774 C14.7762658,11.3167354 15.55317,10.2270396 16.6936137,9.82059504 L17.2444591,15.4222404 C15.8525826,15.2243236 14.7762658,14.0132942 14.7762658,12.5526774 L14.7762658,12.5526774 Z M18.3064742,5.00231269 C18.2211255,4.1861942 18.065191,3.38576143 18.2640305,2.79800849 C18.4047406,2.38233706 18.7230683,2.07277487 19.3703347,1.93760092 L17.2661423,2.19595387 C16.527991,2.75233538 16.0878683,3.67456311 16.1856734,4.66506983 L16.2839397,5.66203538 C15.3575599,5.67818244 14.4773145,5.88763286 13.6791885,6.25071101 L13.7760708,7.34409756 L14.0948599,10.9610387 L14.4288734,14.7519068 L14.5432868,16.0519757 L19.3703347,16.0519757 C19.3703347,16.0519757 19.3495742,15.831453 19.3135893,15.4508438 C19.1101364,13.319432 18.4287305,6.18473874 18.3064742,5.00231269 L18.3064742,5.00231269 Z" id="Fill-4" fill="#FEFEFE"></path>
                <polygon id="Fill-6" fill="#F6BA3E" points="28.4520403 16.1223769 27.7724798 9.42088613 29.8111613 7.12385168 33.0202739 5.42056765 36.342416 6.12919286 37.9285185 7.42880042 39.4384992 9.67831639 40.1937202 11.8517105 40.1937202 14.3914122 39.0984882 15.4741878"></polygon>
                <path d="M45.7567971,4.03980958 C47.5246694,4.34337429 44.5725257,15.8516138 44.5725257,15.8516138 L46.3865324,15.8516138 L47.7359652,14.7808331 L48.3403266,12.1968424 L48.991745,8.99464992 L48.7126316,5.85427765 L46.9913551,4.28570622 L45.7567971,4.03980958 Z" id="Fill-8" fill-opacity="0.16" fill="#36474F"></path>
                <path d="M15.7002005,15.3766596 L15.7002005,44.8132092 C15.7002005,53.2345924 16.1680039,57.8000579 19.0514072,57.8000579 L15.7002005,57.8000579 L13.2841392,57.0125428 L10.6346375,54.0221075 L10.1668341,35.3681024 L10.1668341,15.8513831 L10.1668341,11.4723008 L11.0895232,9.13974277 L13.2929047,6.84316966 L16.0997249,6.12946966 L16.8461803,6.37628899 L16.9527509,8.24242765 L16.61274,9.28322092 L14.9897299,10.1297882 L14.2875635,11.6905167 L14.3586106,13.0154982 L14.9897299,14.1637848 L15.7002005,15.3766596 Z" id="Fill-10" fill="#FEFEFE"></path>
                <path d="M48.5426723,8.69043933 L48.0573378,11.0866629 C47.9978244,11.1863133 47.9733731,11.3058015 47.9899815,11.4257511 L47.3450218,14.6159486 C46.8264706,15.1312704 46.116,15.4500595 45.332637,15.4500595 L39.7337597,15.4500595 C40.2813756,14.4281813 40.5692546,13.2900444 40.5692546,12.108541 C40.5692546,11.8312729 40.5526462,11.5567729 40.5217361,11.2859637 C40.542958,11.2462881 40.557721,11.2010763 40.5674092,11.1549418 L41.3641513,7.20998471 C41.766905,5.21097882 43.7068588,3.91783008 45.6846429,4.32519731 C47.6642723,4.73210319 48.9458874,6.69143345 48.5426723,8.69043933 L48.5426723,8.69043933 Z M38.5439521,15.4500595 L30.7301597,15.4500595 L38.2362353,8.35135109 C39.0588126,9.37830403 39.5524513,10.6862158 39.5524513,12.108541 C39.5524513,13.3098822 39.2036748,14.4613982 38.5439521,15.4500595 L38.5439521,15.4500595 Z M28.9498311,15.4500595 L28.3491605,9.35016202 C28.8298815,8.41778471 29.5421975,7.63026958 30.4210588,7.06189311 C31.3737353,6.44230739 32.4791168,6.11659815 33.6195605,6.11659815 C35.1166235,6.11659815 36.4872782,6.68128387 37.5322235,7.60858639 L29.2427849,15.4500595 L28.9498311,15.4500595 Z M28.0875782,6.68820403 L29.2049546,6.68820403 C28.8312655,6.99730487 28.4907933,7.34608134 28.1899966,7.72484521 L28.0875782,6.68820403 Z M40.4442303,6.68820403 C40.4160882,6.79108387 40.3902529,6.89765445 40.3685697,7.00560908 L39.9293697,9.17254437 C39.4883244,8.20510487 38.8332151,7.35623092 38.0290916,6.68820403 L40.4442303,6.68820403 Z M44.9538731,1.10962588 C44.9658681,1.05472588 45.0198454,1.01827966 45.074284,1.02981328 L47.613063,1.55343933 C47.6675017,1.56312756 47.7034866,1.61987294 47.6919529,1.67477294 L47.2559824,3.83663345 C46.8398496,3.59904101 46.3821958,3.42096202 45.8885571,3.31992756 C45.4281353,3.22489059 44.9690975,3.20182336 44.5229773,3.24334437 L44.9538731,1.10962588 Z M26.3833714,15.4500595 C26.3833714,15.4103839 26.3815261,15.3707082 26.3782966,15.3305713 C26.3155538,14.7059108 25.7660924,14.2505637 25.1474294,14.3137679 C24.5652126,14.3718973 24.1324714,14.8701494 24.1357008,15.4500595 L22.0610345,15.4500595 C21.8815714,14.991483 21.4160748,14.687457 20.9058277,14.7391276 C20.4730866,14.7824939 20.1224647,15.0680662 19.9729891,15.4500595 L18.2701664,15.4500595 L17.197079,4.56278975 C17.1214185,3.78496286 17.5758429,3.07403092 18.2637076,2.79814689 C18.4067244,2.74140151 18.5594294,2.70310992 18.7209,2.68650151 L24.9038395,2.06507042 C25.3531891,2.02032 25.7942345,2.15503261 26.1462403,2.44752504 C26.4982462,2.7381721 26.7173849,3.15015277 26.7616739,3.60227042 L27.3129807,9.19053681 C27.2931429,9.29203261 27.3028311,9.39491244 27.3425067,9.48625866 L27.9297983,15.4500595 L26.3833714,15.4500595 Z M14.7768655,12.5523545 C14.7768655,11.3159511 15.5537697,10.2276393 16.6937521,9.8202721 L17.2450588,15.4219175 C15.8531824,15.224462 14.7768655,14.0129713 14.7768655,12.5523545 L14.7768655,12.5523545 Z M49.3241899,6.2642284 C49.0709118,5.59804689 48.6709261,4.99829899 48.1579109,4.50788975 L48.6889185,1.87914857 C48.8125588,1.26925109 48.4208773,0.670887227 47.8169773,0.546324202 L45.2763529,0.0231594958 C44.6729143,-0.101864874 44.0805479,0.293968739 43.9587529,0.905250252 L43.4369723,3.47909143 C42.3528126,3.85647126 41.4250487,4.62922336 40.858979,5.65940571 L36.3622538,5.65940571 C35.5198387,5.29402084 34.5934588,5.08964521 33.6195605,5.08964521 C32.666884,5.08964521 31.7354294,5.28571664 30.8717924,5.65940571 L27.9874664,5.65940571 L27.7752479,3.50077462 C27.7028168,2.77461832 27.3540403,2.11858639 26.7912,1.65308975 C26.2283597,1.18759311 25.5225025,0.971683866 24.8037277,1.04319227 L18.6203269,1.66462336 C18.1105412,1.71444857 17.6482739,1.90544521 17.2662807,2.19655361 C16.5276681,2.75155109 16.0884681,3.6756242 16.1853504,4.66428555 L16.2840782,5.66125109 C15.3576983,5.6778595 14.4774529,5.88730992 13.6797882,6.25084941 C11.3610706,7.30271496 9.74082857,9.65926286 9.74082857,12.3894998 L9.74082857,51.6706805 C9.74082857,55.3812746 12.7303412,58.4007746 16.4044891,58.4007746 L46.5731924,58.4007746 C50.2473403,58.4007746 53.2368529,55.3812746 53.2368529,51.6706805 L53.2368529,39.1165729 C53.1874891,39.1248771 53.1381252,39.1281066 53.086916,39.1281066 L52.2200496,39.1281066 L52.2200496,51.6706805 C52.2200496,54.8147435 49.6863454,57.3738217 46.5731924,57.3738217 L16.4044891,57.3738217 C13.2913361,57.3738217 10.7576319,54.8147435 10.7576319,51.6706805 L10.7576319,12.3894998 C10.7576319,10.2027267 11.981579,8.30152588 13.7766706,7.34423597 C14.5563429,6.9271805 15.4435084,6.68958807 16.3846513,6.68820403 L16.5904109,8.77671076 C15.4531966,9.10242 14.5531134,9.91853849 14.0940756,10.9602545 C13.8786277,11.4506637 13.7600622,11.9904368 13.7600622,12.5523545 C13.7600622,13.3666276 14.0068815,14.1241553 14.4280891,14.7525066 C14.7967034,15.2991998 15.3004916,15.7494721 15.8877832,16.0516528 C16.4155613,16.3243074 17.0130025,16.4770124 17.6464286,16.4770124 L45.332637,16.4770124 C46.3526697,16.4770124 47.2841244,16.0765654 47.9779866,15.4237629 C48.1182353,15.3707082 48.2298807,15.2558334 48.2792445,15.1063578 C48.8637681,14.4198771 49.2190034,13.5276368 49.2190034,12.5523545 C49.2190034,12.150062 49.1562605,11.7546897 49.037695,11.3759259 L49.5382538,8.89481496 C49.6268319,8.4560763 49.6512832,8.02056706 49.6203731,7.59520739 C51.2244681,8.63415529 52.2200496,10.4287855 52.2200496,12.3894998 L52.2200496,29.1593738 C52.2200496,29.4417166 52.4484151,29.6728503 52.7284513,29.6728503 C53.0080261,29.6728503 53.2368529,29.4417166 53.2368529,29.1593738 L53.2368529,12.3894998 C53.2368529,9.74553429 51.7065731,7.36084437 49.3241899,6.2642284 L49.3241899,6.2642284 Z" id="Fill-12" fill="#455B65"></path>
                <path d="M37.5320851,19.4683243 L37.5320851,24.5514184 C37.5320851,27.7900571 34.9241045,30.423873 31.7191439,30.423873 L30.3697112,30.423873 C27.1629053,30.423873 24.555386,27.7900571 24.555386,24.5514184 L24.555386,19.4683243 C24.555386,19.1841361 24.7823675,18.9548478 25.0637876,18.9548478 C25.3433624,18.9548478 25.5721893,19.1841361 25.5721893,19.4683243 L25.5721893,24.5514184 C25.5721893,27.223526 27.7243616,29.3969201 30.3697112,29.3969201 L31.7191439,29.3969201 C34.3631095,29.3969201 36.5152818,27.223526 36.5152818,24.5514184 L36.5152818,19.4683243 C36.5152818,19.1841361 36.7441087,18.9548478 37.0236834,18.9548478 C37.3051036,18.9548478 37.5320851,19.1841361 37.5320851,19.4683243" id="Fill-14" fill="#455B65"></path>
                <path d="M20.0991668,6.5497084 C20.7164458,6.48788824 21.1676408,5.93196807 21.1062819,5.30823025 C21.0444618,4.68449244 20.4945391,4.22914538 19.8767987,4.29142689 C19.2595197,4.35324706 18.8083248,4.90916723 18.870145,5.53290504 C18.9315038,6.15664286 19.4818878,6.61152857 20.0991668,6.5497084" id="Fill-16" fill="#455A64"></path>
                <path d="M24.3421525,6.12365672 C24.9594315,6.06183655 25.4106265,5.50591639 25.3492676,4.88217857 C25.2874475,4.25844076 24.7375248,3.8030937 24.1197845,3.86537521 C23.5025055,3.92719538 23.0513105,4.48311555 23.1131307,5.10685336 C23.1744895,5.73059118 23.7248735,6.18547689 24.3421525,6.12365672" id="Fill-18" fill="#455A64"></path>
                <path d="M20.3823862,9.4264684 C19.7651072,9.48828857 19.3139123,10.0442087 19.3752711,10.6679466 C19.4370913,11.2916844 19.9870139,11.7470314 20.6047543,11.6847499 C21.2220333,11.6229297 21.6732282,11.0670096 21.6114081,10.4432718 C21.5500492,9.81953395 20.9996652,9.36464824 20.3823862,9.4264684" id="Fill-20" fill="#455A64"></path>
                <path d="M24.6253258,9.00041672 C24.0080468,9.06223689 23.5568518,9.61815706 23.6182107,10.2418949 C23.6800308,10.8656327 24.2299535,11.3209797 24.8476939,11.2586982 C25.4649729,11.1968781 25.9161678,10.6409579 25.8543476,10.0172201 C25.7929888,9.39348227 25.2426048,8.93859655 24.6253258,9.00041672" id="Fill-22" fill="#455A64"></path>
                <path d="M31.4888869,6.12928513 C29.5184844,10.750112 30.2746281,15.4931952 31.4888869,15.8516599 C32.7031457,16.2101246 28.6543861,16.0108238 28.6543861,16.0108238 L28.2101113,13.3926935 L27.6421961,8.79447252 L31.4888869,6.12928513 Z" id="Fill-24" fill-opacity="0.1" fill="#455A64"></path>
                <path d="M53.2366684,28.6027616 L53.2366684,29.1596045 C53.2366684,29.4419473 53.0078415,29.6730809 52.7282667,29.6730809 C52.4486919,29.6730809 52.219865,29.4419473 52.219865,29.1596045 L52.219865,28.591228 L53.0871928,28.591228 C53.1379407,28.591228 53.1873045,28.5944574 53.2366684,28.6027616" id="Fill-26" fill="#CFD8DB"></path>
                <path d="M53.2366684,25.2045439 L53.2366684,29.1591892 C53.2366684,29.4419934 53.0078415,29.6726657 52.7282667,29.6726657 C52.4486919,29.6726657 52.219865,29.4419934 52.219865,29.1591892 L52.219865,25.2045439 C52.219865,24.922201 52.4486919,24.6910674 52.7282667,24.6910674 C52.8680541,24.6910674 52.9949239,24.7491968 53.0871928,24.8423884 C53.1790003,24.9351187 53.2366684,25.0633724 53.2366684,25.2045439" id="Fill-28" fill="#455A64"></path>
                <path d="M52.957555,41.4703989 L52.4985171,41.4703989 C52.3453508,41.4703989 52.219865,41.3449132 52.219865,41.1917468 L52.219865,36.7674527 C52.219865,36.613825 52.3453508,36.4883392 52.4985171,36.4883392 L52.957555,36.4883392 C53.1107213,36.4883392 53.2362071,36.613825 53.2362071,36.7674527 L53.2362071,41.1917468 C53.2362071,41.3449132 53.1107213,41.4703989 52.957555,41.4703989" id="Fill-30" fill="#455A64"></path>
                <path d="M52.957555,35.1220674 L52.4985171,35.1220674 C52.3453508,35.1220674 52.219865,34.9965817 52.219865,34.8434153 L52.219865,32.2598859 C52.219865,32.1067195 52.3453508,31.9812338 52.4985171,31.9812338 L52.957555,31.9812338 C53.1107213,31.9812338 53.2362071,32.1067195 53.2362071,32.2598859 L53.2362071,34.8434153 C53.2362071,34.9965817 53.1107213,35.1220674 52.957555,35.1220674" id="Fill-32" fill="#455A64"></path>
                <polygon id="Fill-34" fill="#455B65" points="54.9512092 50.625084 62.9283176 50.625084 62.9283176 50.125084 54.9512092 50.125084"></polygon>
                <polygon id="Fill-36" fill="#455B65" points="54.9512092 53.7631496 58.9395328 53.7631496 58.9395328 53.2631496 54.9512092 53.2631496"></polygon>
                <polygon id="Fill-37" fill="#455B65" points="0 50.625084 7.9771084 50.625084 7.9771084 50.125084 0 50.125084"></polygon>
                <polygon id="Fill-38" fill="#455B65" points="3.98832353 53.7631496 7.9771084 53.7631496 7.9771084 53.2631496 3.98832353 53.2631496"></polygon>
                <polygon id="Fill-39" fill="#455B65" points="25.2295487 60.9236782 38.9204092 60.9236782 38.9204092 60.4236782 25.2295487 60.4236782"></polygon>
                <polygon id="Fill-40" fill="#455B65" points="41.9062311 60.9236782 43.8757109 60.9236782 43.8757109 60.4236782 41.9062311 60.4236782"></polygon>
                <path d="M28.6422988,40.2993219 C28.6422988,41.0282463 28.0573139,41.6192287 27.3353097,41.6192287 C26.6137669,41.6192287 26.028782,41.0282463 26.028782,40.2993219 C26.028782,39.5703976 26.6137669,38.9794152 27.3353097,38.9794152 C28.0573139,38.9794152 28.6422988,39.5703976 28.6422988,40.2993219" id="Fill-41" fill="#455B65"></path>
                <path d="M36.9495915,45.2234367 C36.7470613,48.1492838 34.2917856,50.4481636 31.3225722,50.3595855 C28.54251,50.2756208 26.2357873,48.0542468 26.0300276,45.2529628 C26.0286436,45.2432745 26.0286436,45.233125 26.0286436,45.2234367 L36.9495915,45.2234367 Z" id="Fill-42" fill="#455B65"></path>
                <path d="M36.9495915,40.2993219 C36.9495915,41.0282463 36.3646066,41.6192287 35.6426024,41.6192287 C34.9210596,41.6192287 34.3360747,41.0282463 34.3360747,40.2993219 C34.3360747,39.5703976 34.9210596,38.9794152 35.6426024,38.9794152 C36.3646066,38.9794152 36.9495915,39.5703976 36.9495915,40.2993219" id="Fill-43" fill="#455B65"></path>
                <path d="M8.24256605,8.34581496 C8.24256605,9.06043765 7.66911479,9.63942504 6.96141227,9.63942504 C6.25417109,9.63942504 5.68025849,9.06043765 5.68025849,8.34581496 C5.68025849,7.63119227 6.25417109,7.05220487 6.96141227,7.05220487 C7.66911479,7.05220487 8.24256605,7.63119227 8.24256605,8.34581496" id="Fill-44" fill="#C3DA5F"></path>
                <polygon id="Fill-45" fill="#FDD836" points="56.9466166 47.2362829 56.9466166 43.2105905 60.9326334 43.2105905"></polygon>
                <path d="M62.5275015,25.754974 C61.9803469,25.754974 61.4945511,25.5962715 61.119478,25.2788665 C60.5049671,24.7593925 60.2992074,23.9026757 60.5681713,22.9864455 C60.7402528,22.4005379 60.5755528,21.774032 60.1483477,21.3901934 C59.6777763,20.9666791 58.978378,20.9094724 58.2300771,21.2337976 C57.1246956,21.7122118 56.0935906,21.5756539 55.4716982,20.8684127 C54.7667637,20.0670572 54.7787587,18.7319261 55.5012242,17.4673808 C55.6506998,17.2053371 55.9824066,17.1153749 56.2416822,17.2666959 C56.5014192,17.4175555 56.5899973,17.7524917 56.4405217,18.0145354 C55.8887536,18.9801295 55.9634914,19.7782555 56.2827418,20.1408724 C56.5835385,20.48319 57.1380746,20.5145614 57.8028721,20.2266824 C58.936857,19.7358118 60.0832982,19.8649883 60.8694292,20.5717682 C61.6094259,21.2365656 61.8991503,22.306885 61.6080418,23.297853 C61.463641,23.7896463 61.5393015,24.2053177 61.8156469,24.4392194 C62.1288998,24.7035698 62.8149192,24.808295 63.8026578,24.3077362 C64.0702376,24.1721009 64.3959469,24.2809782 64.5306595,24.5513261 C64.6649108,24.821674 64.5564948,25.151074 64.288915,25.2867093 C63.67302,25.5990396 63.0700427,25.754974 62.5275015,25.754974" id="Fill-46" fill="#C3DA5F"></path>
                <path d="M0.187305882,35.5481191 C0.0262966387,35.2607014 -0.0346008403,34.9589821 0.0189151261,34.6687964 C0.105647899,34.1936115 0.486257143,33.8337628 1.03710252,33.705509 C1.38956975,33.623851 1.6636084,33.3535031 1.7360395,33.0162603 C1.81539076,32.6444166 1.63961849,32.2605779 1.25301176,31.9630107 C0.681867227,31.522888 0.448888235,30.9411325 0.630657983,30.4064342 C0.836417647,29.8011502 1.52705042,29.4150048 2.39068739,29.4228476 C2.56922773,29.424693 2.71316723,29.5723233 2.71132185,29.7531703 C2.70993782,29.9335561 2.56323025,30.0788796 2.38468992,30.0770342 C1.72542857,30.0710367 1.33651513,30.344614 1.24332353,30.619114 C1.15566807,30.877467 1.30237563,31.1778023 1.64607731,31.442614 C2.23152353,31.893809 2.50187143,32.5336939 2.3690042,33.1546636 C2.24397983,33.7382645 1.77848319,34.2051451 1.18242605,34.3435485 C0.886704202,34.4118275 0.694784874,34.5737594 0.655570588,34.7878233 C0.611281513,35.0300292 0.759373109,35.420788 1.30698908,35.7926317 C1.45554202,35.8932048 1.49521765,36.0966577 1.39556723,36.2465947 C1.29591681,36.3965317 1.09430924,36.4362073 0.945756303,36.3356342 C0.604361345,36.1040392 0.346469748,35.83323 0.187305882,35.5481191" id="Fill-47" fill="#FDD836"></path>
            </g>
        </g>
    </g>
</svg>