<svg width="18" height="18" fill="none" xmlns="http://www.w3.org/2000/svg"><path fill-rule="evenodd" clip-rule="evenodd" d="M0 18h18V0H0v18Z" fill="#3B3B3B" fill-opacity=".01"/><path fill-rule="evenodd" clip-rule="evenodd" d="M8.15 15.107a6.123 6.123 0 0 1-4.834-2.34 6.07 6.07 0 0 1-1.253-4.51A6.075 6.075 0 0 1 4.367 4.18a6.143 6.143 0 0 1 7.38-.119.5.5 0 1 1-.59.807 5.143 5.143 0 0 0-6.175.1 5.091 5.091 0 0 0-1.927 3.41 5.084 5.084 0 0 0 1.048 3.774c1.706 2.183 4.895 2.604 7.107.94a.5.5 0 1 1 .601.799 6.066 6.066 0 0 1-3.66 1.216Z" fill="#3B3B3B"/><path fill-rule="evenodd" clip-rule="evenodd" d="m15.837 8.632-2.672-2.664a.503.503 0 0 0-.708.001.502.502 0 0 0 .001.708l1.824 1.818H9.037a.5.5 0 0 0 0 1h5.233l-1.813 1.821a.5.5 0 0 0 .71.705l2.671-2.682a.501.501 0 0 0 0-.707Z" fill="#3B3B3B"/></svg>