<svg data-name="Layer 1" xmlns="http://www.w3.org/2000/svg" viewBox="0 0 24 24"><path d="M0 0h24v24H0Z" style="fill:none"/><path d="M20.87 23v-1.26a3.31 3.31 0 0 0-1.78-3l-3.85-2a1.52 1.52 0 0 1-.82-1.35v-1.52a4.76 4.76 0 0 0 .37-.49A9.48 9.48 0 0 0 16 10.9a1.25 1.25 0 0 0 .86-1.18V8.06a1.25 1.25 0 0 0-.4-.92v-2.4S16.92 1 12 1 7.57 4.73 7.57 4.73v2.4a1.25 1.25 0 0 0-.41.92v1.66a1.26 1.26 0 0 0 .56 1 8.27 8.27 0 0 0 1.46 3.1v1.52a1.54 1.54 0 0 1-.77 1.33l-3.6 2a3.37 3.37 0 0 0-1.68 2.92V23" style="stroke:#000;stroke-miterlimit:10;stroke-width:1.5px;fill:none"/></svg>