<svg width="124" height="42" viewBox="0 0 124 42" fill="none" xmlns="http://www.w3.org/2000/svg">
<g clip-path="url(#clip0)">
<path d="M89.5629 13.7426C89.5629 14.2732 89.5629 14.7631 89.5629 15.2529C89.6033 15.2529 89.6437 15.2529 89.6437 15.2121C90.3311 14.2732 91.2611 13.7426 92.3529 13.4569C93.5255 13.1303 94.6577 13.212 95.7899 13.6201C96.639 13.9059 97.286 14.4773 97.7712 15.2121C97.8116 15.2937 97.8925 15.3753 97.9734 15.5386C98.0138 15.457 98.0542 15.3753 98.0947 15.3345C98.9034 14.2732 99.9547 13.5793 101.249 13.3752C102.543 13.1303 103.836 13.2528 105.009 13.8651C106.505 14.5998 107.354 15.8244 107.597 17.4979C107.678 17.9061 107.678 18.3551 107.678 18.7633C107.678 21.7839 107.678 24.8045 107.678 27.8659C107.678 27.9884 107.678 28.1108 107.678 28.2333C106.263 28.2333 104.847 28.2333 103.432 28.2333C103.432 28.07 103.432 27.9475 103.432 27.7843C103.432 25.1719 103.432 22.6003 103.432 19.9879C103.432 19.6613 103.392 19.3756 103.351 19.049C103.149 18.151 102.583 17.5387 101.653 17.3755C100.804 17.253 99.9951 17.3755 99.3886 18.1102C98.9842 18.6 98.7821 19.1715 98.7821 19.8246C98.7821 20.9675 98.7821 22.1104 98.7821 23.2534C98.7821 24.7637 98.7821 26.3148 98.7821 27.8251C98.7821 27.9475 98.7821 28.07 98.7821 28.1924C97.3264 28.1924 95.9112 28.1924 94.4555 28.1924C94.4555 28.07 94.4555 27.9475 94.4555 27.7843C94.4555 25.1719 94.4555 22.5595 94.4555 19.9471C94.4555 19.5389 94.4151 19.1307 94.2938 18.7633C93.9299 17.8245 93.2829 17.4163 92.4337 17.3347C92.1103 17.2938 91.7464 17.3347 91.4229 17.4163C90.5333 17.702 90.0481 18.3551 89.8459 19.2531C89.8055 19.4572 89.8055 19.7021 89.8055 19.9471C89.8055 22.5595 89.8055 25.1719 89.8055 27.7843C89.8055 27.9067 89.8055 28.0292 89.8055 28.1924C88.3498 28.1924 86.8941 28.1924 85.4385 28.1924C85.4385 23.3758 85.4385 18.5592 85.4385 13.7426C86.7324 13.7426 88.1476 13.7426 89.5629 13.7426Z" fill="black"/>
<path d="M119.768 15.0892C119.768 14.6402 119.768 14.1912 119.768 13.7422C121.183 13.7422 122.558 13.7422 123.973 13.7422C123.973 13.8238 123.973 13.9463 123.973 14.0279C123.973 18.3547 123.973 22.6815 123.973 26.9675C123.973 28.6002 123.569 30.1105 122.76 31.5392C121.911 33.0087 120.698 33.9475 119.121 34.3965C117.261 34.9272 115.36 34.9272 113.5 34.3557C112.045 33.9067 110.872 33.0087 109.982 31.7433C109.618 31.2126 109.335 30.6004 109.214 29.9881C109.214 29.9064 109.174 29.8656 109.174 29.784C109.174 29.7432 109.174 29.6615 109.133 29.5799C110.427 29.2125 111.681 28.8452 112.975 28.4778C113.015 28.5594 113.055 28.6819 113.055 28.7635C113.419 29.9473 114.471 30.8861 115.926 30.9269C116.452 30.9269 116.978 30.8861 117.463 30.7228C118.555 30.3146 119.202 29.4574 119.485 28.3553C119.646 27.6614 119.687 26.9267 119.646 26.1919L119.606 26.1511H119.565C118.959 26.9267 118.15 27.3349 117.18 27.4981C115.926 27.7022 114.673 27.7022 113.5 27.2124C111.398 26.396 110.023 24.8857 109.416 22.7632C108.85 20.8039 108.971 18.8854 109.942 17.0893C110.751 15.5382 111.964 14.3545 113.662 13.783C114.956 13.3748 116.25 13.334 117.544 13.6606C118.433 13.8647 119.161 14.3545 119.768 15.0892ZM113.541 20.5181C113.541 20.6814 113.541 20.8039 113.541 20.9671C113.662 22.1509 114.268 23.0489 115.36 23.4979C115.805 23.702 116.331 23.7428 116.816 23.702C118.191 23.6204 119.161 22.804 119.485 21.661C119.646 21.1712 119.687 20.6406 119.646 20.1099C119.485 18.1506 117.665 16.8036 115.603 17.4567C114.309 17.9057 113.541 19.0487 113.541 20.5181Z" fill="black"/>
<path d="M85.3574 11.7418C85.3574 10.2315 85.3574 8.72123 85.3574 7.21094C98.2158 7.21094 111.074 7.21094 123.933 7.21094C124.013 7.41503 124.013 11.1295 123.973 11.701C123.73 11.7826 86.0448 11.8235 85.3574 11.7418Z" fill="black"/>
<path d="M78.9688 34.6813C78.9688 33.171 78.9688 31.6607 78.9688 30.1504C88.5519 30.1504 98.0946 30.1504 107.678 30.1504C107.678 31.6607 107.678 33.171 107.678 34.6813C98.135 34.6813 88.5519 34.6813 78.9688 34.6813Z" fill="black"/>
<path d="M83.4571 28.1915C81.961 28.1915 80.4649 28.1915 78.9283 28.1915C78.9283 27.4976 78.9283 26.8445 78.9283 26.1505C78.9283 25.4566 78.9283 24.8035 78.9283 24.1096C78.9283 23.4157 78.9283 22.7626 78.9283 22.0687C78.9283 21.3748 78.9283 20.7217 78.9283 20.0277C78.9283 19.3338 78.9283 18.6807 78.9283 17.9868C78.9283 17.2929 78.9283 16.6398 78.9283 15.9459C78.9283 15.2519 78.9283 14.5988 78.9283 13.8641C77.4322 13.8641 75.9766 13.8641 74.4805 13.8641C74.4805 12.8436 74.4805 11.8232 74.4805 10.7619C74.6018 10.7619 74.7231 10.7619 74.8444 10.7619C76.1383 10.6802 77.2705 10.3129 78.2814 9.45568C78.9283 8.92503 79.3327 8.23111 79.5349 7.41474C79.5349 7.37392 79.5753 7.29228 79.5753 7.25146C80.8692 7.25146 82.1632 7.25146 83.4571 7.25146C83.4571 14.1907 83.4571 21.1707 83.4571 28.1915Z" fill="black"/>
<path d="M35.1373 29.6211C34.8543 29.6211 34.5712 29.6211 34.3286 29.6211C32.509 29.6211 30.649 29.6211 28.8294 29.6211C28.5464 29.6211 28.4251 29.5395 28.3442 29.2946C27.2524 26.1107 26.1607 22.9677 25.1094 19.7838C25.069 19.6613 25.0285 19.5389 24.9476 19.3348C24.8263 19.7022 24.705 19.9471 24.6242 20.2328C23.6133 23.2126 22.6024 26.2332 21.5915 29.2129C21.5107 29.4987 21.3894 29.5803 21.1063 29.5803C19.1654 29.5803 17.1841 29.5803 15.2432 29.5803C15.1219 29.5803 15.0006 29.5803 14.8389 29.5803C15.041 29.0905 15.2028 28.6007 15.3645 28.1108C17.3054 22.9677 19.2463 17.8245 21.1467 12.7222C21.2681 12.4364 21.3894 12.314 21.7128 12.314C23.8559 12.314 25.9585 12.314 28.1016 12.314C28.3846 12.314 28.5059 12.3956 28.6272 12.6813C30.7299 18.1919 32.8729 23.7432 35.016 29.2538C35.0969 29.3762 35.0969 29.4987 35.1373 29.6211Z" fill="black"/>
<path d="M68.7799 29.6211C68.6181 29.6211 68.4968 29.6211 68.3755 29.6211C66.3942 29.6211 64.4129 29.6211 62.4316 29.6211C62.1485 29.6211 62.0272 29.5395 61.9463 29.2946C60.8546 26.1107 59.7629 22.9677 58.7115 19.7838C58.6711 19.6613 58.6307 19.5389 58.5498 19.3348C58.4689 19.5389 58.4285 19.7022 58.3881 19.8246C57.3367 22.9677 56.245 26.0699 55.1937 29.2129C55.1128 29.4987 54.9915 29.6211 54.668 29.6211C52.7271 29.6211 50.8267 29.6211 48.8858 29.6211C48.7645 29.6211 48.6432 29.6211 48.4814 29.6211C48.5219 29.4579 48.5623 29.3354 48.6028 29.2129C50.6649 23.7024 52.7676 18.1919 54.8298 12.6813C54.9511 12.3956 55.0724 12.314 55.3959 12.314C57.5389 12.314 59.682 12.314 61.825 12.314C62.0677 12.314 62.189 12.3956 62.3103 12.6405C64.4533 18.1919 66.5964 23.784 68.7395 29.3354C68.7395 29.417 68.7394 29.4987 68.7799 29.6211Z" fill="black"/>
<path d="M50.1811 12.395C50.1811 14.0686 50.1811 15.7422 50.1811 17.4565C48.6042 17.4565 47.0676 17.4565 45.4502 17.4565C45.4502 21.5384 45.4502 25.5795 45.4502 29.6614C43.1454 29.6614 40.881 29.6614 38.5762 29.6614C38.5762 25.6203 38.5762 21.5792 38.5762 17.4974C36.9184 17.4974 35.301 17.4974 33.6836 17.4974C33.6836 15.783 33.6836 14.1094 33.6836 12.4358C39.1423 12.395 44.6415 12.395 50.1811 12.395Z" fill="black"/>
<path d="M0 12.394C5.49918 12.394 10.9984 12.394 16.538 12.394C16.538 14.0676 16.538 15.7412 16.538 17.4556C14.961 17.4556 13.4245 17.4556 11.8071 17.4556C11.8071 21.5374 11.8071 25.5785 11.8071 29.6604C9.50226 29.6604 7.19745 29.6604 4.89265 29.6604C4.89265 25.6193 4.89265 21.5783 4.89265 17.4964C3.23481 17.4964 1.65784 17.4964 0 17.4964C0 15.7412 0 14.0676 0 12.394Z" fill="black"/>
</g>
<defs>
<clipPath id="clip0">
<rect width="124" height="42" fill="white"/>
</clipPath>
</defs>
</svg>
